<?xml version="1.0" standalone="no"?>
<!DOCTYPE svg PUBLIC "-//W3C//DTD SVG 20010904//EN"
 "http://www.w3.org/TR/2001/REC-SVG-20010904/DTD/svg10.dtd">
<svg version="1.0" xmlns="http://www.w3.org/2000/svg"
 width="660.000000pt" height="660.000000pt" viewBox="0 0 660.000000 660.000000"
 preserveAspectRatio="xMidYMid meet">
<metadata>
Created by potrace 1.14, written by Peter Selinger 2001-2017
</metadata>
<g transform="translate(0.000000,660.000000) scale(0.100000,-0.100000)"
fill="#000000" stroke="none">
<path d="M3418 6525 c-1 -2 -37 -6 -78 -9 -41 -3 -85 -8 -97 -10 -11 -3 -43
-8 -70 -12 -26 -3 -57 -8 -68 -10 -11 -2 -33 -7 -50 -10 -16 -3 -48 -9 -70
-14 -22 -5 -53 -11 -70 -14 -16 -3 -84 -19 -150 -36 -66 -17 -127 -33 -135
-35 -101 -25 -260 -74 -360 -109 -41 -15 -82 -29 -90 -31 -16 -4 -185 -68
-235 -90 -16 -7 -59 -25 -95 -40 -36 -15 -93 -41 -128 -56 -34 -16 -67 -29
-72 -29 -6 0 -10 -4 -10 -10 0 -5 -6 -10 -14 -10 -8 0 -41 -14 -73 -31 -278
-151 -458 -283 -658 -484 -94 -94 -235 -259 -235 -274 0 -6 -4 -11 -8 -11 -10
0 -152 -214 -152 -229 0 -6 -3 -11 -7 -11 -5 0 -13 -10 -19 -23 -6 -12 -40
-80 -76 -152 -36 -71 -77 -161 -92 -200 -15 -38 -33 -83 -41 -100 -12 -28 -83
-243 -90 -275 -2 -8 -10 -42 -19 -75 -16 -62 -46 -205 -51 -240 -2 -11 -6 -33
-9 -50 -12 -67 -25 -164 -32 -230 -3 -38 -8 -78 -10 -89 -6 -32 -17 -257 -16
-336 1 -92 11 -289 17 -318 2 -11 6 -45 9 -74 4 -29 8 -64 11 -77 2 -12 6 -42
9 -66 3 -23 10 -62 15 -86 5 -24 12 -57 15 -74 3 -16 19 -84 36 -150 17 -66
32 -129 34 -140 7 -36 73 -228 111 -325 37 -93 125 -276 180 -375 32 -58 169
-268 195 -299 10 -11 51 -61 92 -111 63 -75 163 -179 271 -280 39 -36 170
-140 242 -191 189 -135 413 -257 610 -333 101 -39 342 -112 411 -125 16 -2 65
-11 109 -19 229 -42 368 -52 780 -52 304 0 467 5 589 20 17 2 56 6 86 10 30 3
78 10 105 15 28 5 70 12 95 15 25 4 88 16 140 27 52 10 106 22 119 24 14 3 28
7 31 9 4 2 20 6 36 9 130 23 460 146 644 239 113 57 277 152 290 166 3 3 32
24 65 46 174 116 400 334 547 525 116 152 288 429 288 465 0 7 4 15 8 17 13 5
162 354 176 413 11 44 20 72 25 80 3 6 6 12 6 15 1 3 8 30 18 60 26 87 70 266
82 335 2 11 8 44 14 74 6 30 14 79 17 109 3 31 8 65 10 76 17 89 24 476 11
621 -11 120 -19 189 -32 260 -3 17 -10 57 -16 90 -10 55 -42 189 -74 310 -22
79 -68 217 -105 310 -26 67 -119 270 -148 325 -19 36 -43 81 -53 100 -22 41
-145 236 -174 276 -94 127 -144 193 -214 276 -89 106 -290 310 -391 398 -35
30 -68 60 -74 65 -32 30 -192 149 -266 198 -47 32 -89 61 -95 65 -5 4 -17 11
-25 15 -8 4 -37 21 -65 37 -120 73 -406 199 -510 226 -5 2 -50 15 -100 29 -81
23 -257 57 -361 71 -47 6 -461 14 -466 9z m292 -408 c25 -3 59 -8 75 -11 17
-2 46 -7 65 -10 121 -19 353 -86 475 -137 17 -6 35 -13 41 -14 12 -3 95 -41
219 -101 127 -61 395 -227 425 -263 3 -3 23 -19 45 -36 22 -16 82 -71 134
-123 l94 -95 -124 -119 c-68 -66 -185 -179 -260 -251 -119 -116 -414 -401
-689 -667 -220 -212 -525 -506 -649 -627 -75 -72 -137 -130 -138 -129 -2 2 -6
43 -18 196 -12 142 -15 188 -20 255 -2 39 -7 95 -9 125 -12 138 -19 218 -21
255 -3 55 -14 187 -21 260 -3 33 -7 89 -9 125 -4 64 -12 173 -21 260 -2 25 -6
83 -9 130 -3 47 -8 110 -11 140 -4 53 -6 77 -19 245 -3 44 -8 105 -11 135 -5
64 -10 141 -19 260 -3 47 -8 95 -10 107 -4 16 2 27 17 37 35 22 107 43 173 51
33 3 61 8 62 9 4 4 185 -2 233 -7z m-689 -101 c0 -17 2 -53 4 -81 3 -47 11
-221 20 -430 2 -49 6 -142 9 -205 3 -63 8 -164 11 -225 3 -60 7 -162 10 -225
4 -63 8 -153 10 -200 5 -124 15 -331 20 -440 2 -52 7 -156 10 -230 4 -74 8
-154 10 -177 2 -31 -1 -43 -12 -48 -11 -4 -120 99 -377 358 -328 330 -532 527
-641 618 -22 19 -47 41 -55 50 -8 8 -89 77 -180 153 -91 76 -176 148 -190 160
-22 18 -81 67 -155 128 -11 9 -58 48 -105 87 -47 40 -95 80 -108 91 l-22 19
47 32 c27 18 50 35 53 39 3 3 41 32 85 63 44 31 85 60 91 64 107 78 666 339
838 392 35 11 110 23 167 26 57 4 105 7 106 8 1 1 80 2 177 3 l176 1 1 -31z
m-1909 -833 c2 -5 44 -41 93 -82 50 -41 97 -81 105 -88 52 -46 99 -87 196
-170 293 -252 853 -804 1144 -1129 19 -21 57 -64 85 -95 27 -30 63 -71 80 -90
16 -19 58 -66 92 -106 64 -72 73 -89 51 -90 -25 -2 -186 -17 -298 -28 -25 -3
-70 -7 -100 -10 -30 -3 -75 -7 -100 -10 -25 -2 -74 -7 -110 -10 -36 -4 -76 -8
-90 -10 -14 -2 -61 -7 -105 -10 -44 -4 -96 -8 -115 -10 -19 -3 -62 -7 -95 -10
-33 -3 -80 -7 -105 -10 -25 -3 -74 -7 -110 -10 -36 -3 -81 -8 -100 -10 -19 -2
-69 -7 -110 -10 -41 -3 -86 -8 -100 -10 -43 -7 -173 -18 -227 -19 -29 -1 -53
-3 -53 -6 0 -3 -10 -5 -22 -6 -13 0 -54 -4 -93 -8 -38 -4 -92 -9 -120 -11 -27
-2 -77 -7 -110 -10 -33 -4 -78 -8 -100 -10 -22 -3 -62 -7 -90 -10 -158 -16
-195 -16 -196 2 0 10 -2 25 -4 33 -17 81 -23 315 -10 380 3 14 7 56 10 94 4
38 8 72 10 76 2 3 6 26 10 50 6 39 14 81 31 155 3 11 7 31 10 45 18 93 143
482 156 488 5 2 8 9 8 16 0 56 234 508 294 568 7 7 17 20 22 30 5 9 36 46 69
82 54 59 87 79 97 59z m4501 -233 c21 -26 117 -168 117 -173 0 -3 18 -31 39
-63 83 -125 252 -481 276 -582 3 -9 18 -60 34 -113 36 -118 71 -281 74 -345 2
-42 -1 -49 -18 -51 -19 -2 -42 -5 -135 -18 -19 -3 -46 -7 -60 -10 -14 -2 -45
-7 -70 -10 -25 -3 -54 -7 -65 -9 -11 -2 -49 -7 -85 -11 -36 -4 -74 -9 -85 -11
-11 -2 -44 -6 -75 -9 -31 -3 -64 -7 -75 -9 -11 -2 -51 -7 -90 -10 -38 -4 -81
-9 -95 -11 -22 -3 -93 -11 -195 -20 -210 -20 -241 -23 -345 -30 -47 -3 -101
-8 -120 -10 -198 -21 -950 -43 -950 -27 0 6 4 12 9 14 9 2 146 131 366 343 52
50 351 336 429 410 23 22 123 117 221 210 97 94 197 188 220 210 23 22 120
115 216 207 96 91 208 198 248 236 l75 70 63 -81 c35 -45 69 -89 76 -97z m582
-1750 c25 -224 -23 -585 -121 -918 -119 -404 -309 -763 -520 -982 l-53 -54
-64 59 c-120 113 -983 980 -1142 1149 -88 92 -180 189 -205 215 -25 26 -97
103 -160 171 -63 67 -143 153 -177 189 -34 36 -60 67 -58 69 2 2 41 5 87 8 74
3 143 6 388 19 36 1 128 6 205 9 77 4 165 9 195 11 30 2 103 7 162 10 138 7
232 14 428 31 41 4 94 7 117 8 24 0 43 3 43 6 0 3 17 5 38 6 41 1 198 14 223
19 8 2 49 6 90 10 41 3 88 8 104 9 17 2 66 7 110 11 44 4 87 9 97 10 9 2 54 6
100 10 45 4 85 9 87 11 10 9 19 -23 26 -86z m-3761 -637 c-278 -279 -689 -693
-915 -919 l-409 -411 -24 26 c-24 25 -83 95 -98 116 -4 5 -18 24 -31 40 -107
135 -238 365 -318 557 -53 126 -139 402 -154 493 -2 11 -6 35 -9 53 -3 17 -8
44 -10 60 -3 15 -7 41 -10 57 -3 17 -8 55 -11 85 -4 30 -8 69 -10 87 -5 38 0
40 125 59 19 2 46 7 60 9 14 3 51 7 83 10 32 4 66 8 75 10 15 3 114 14 182 21
14 1 25 3 25 4 0 0 27 3 60 5 33 2 89 6 125 10 36 3 94 8 130 10 36 3 103 7
150 10 47 4 119 8 160 10 41 2 109 7 150 9 41 3 116 8 165 11 203 12 243 15
310 20 142 9 402 32 465 40 19 3 62 7 95 10 33 4 61 7 62 9 1 1 20 3 42 4 39
3 35 -2 -465 -505z m680 230 c-3 -92 -14 -443 -20 -633 -2 -85 -6 -231 -9
-325 -3 -93 -7 -244 -10 -335 -2 -91 -7 -237 -10 -325 -13 -409 -18 -586 -19
-655 0 -41 -5 -78 -10 -81 -9 -7 -221 -4 -306 5 -118 12 -176 20 -230 31 -14
3 -41 8 -60 11 -189 32 -528 150 -715 249 -117 62 -289 182 -371 259 l-78 72
575 575 c494 494 698 694 955 936 87 83 307 283 310 283 0 0 -1 -30 -2 -67z
m1156 -823 c1038 -1051 962 -971 942 -990 -45 -42 -209 -150 -313 -207 -103
-56 -332 -158 -378 -167 -9 -2 -23 -6 -31 -9 -78 -30 -265 -76 -395 -97 -33
-5 -69 -12 -81 -14 -45 -9 -255 -33 -360 -41 -27 -2 -104 -7 -171 -10 -115 -7
-123 -6 -124 11 -1 11 0 107 0 214 1 107 2 202 2 210 -2 198 14 924 35 1525 3
110 8 243 9 295 2 52 4 108 4 124 1 27 12 18 147 -120 80 -82 402 -408 714
-724z"/>
<path d="M3890 5609 c-63 -32 -138 -66 -166 -75 -125 -41 -195 -131 -199 -259
-2 -49 3 -78 14 -98 17 -30 64 -48 96 -37 23 8 53 62 58 105 8 76 58 124 156
151 86 24 178 70 219 110 32 31 37 42 37 81 0 35 -5 49 -24 64 -36 29 -66 22
-191 -42z"/>
<path d="M4625 5447 c-56 -19 -130 -76 -154 -118 -18 -31 -22 -51 -18 -85 6
-55 26 -87 78 -121 35 -23 52 -27 113 -27 144 0 229 84 228 226 0 45 -25 90
-65 113 -35 21 -137 28 -182 12z"/>
<path d="M3698 4760 c-119 -42 -180 -154 -155 -283 41 -203 213 -281 374 -171
76 52 107 119 101 217 -5 79 -32 148 -70 184 -60 57 -172 81 -250 53z m100
-219 c27 -16 31 -64 9 -104 -37 -67 -94 -55 -111 23 -3 14 -8 35 -12 47 -5 18
-1 23 27 32 43 12 71 13 87 2z"/>
<path d="M1998 5608 c-55 -15 -116 -72 -125 -116 -14 -68 -4 -118 33 -162 103
-122 337 -68 359 84 12 74 -43 161 -120 190 -33 13 -108 15 -147 4z"/>
<path d="M2690 5358 c-69 -16 -127 -31 -129 -34 -9 -9 36 -76 63 -93 35 -22
91 -19 144 8 58 30 76 54 69 97 -4 21 -10 40 -14 44 -4 3 -64 -7 -133 -22z"/>
<path d="M2708 4911 c-18 -16 -50 -62 -71 -104 -35 -67 -38 -80 -32 -123 9
-68 47 -130 95 -154 47 -24 69 -25 118 -4 65 27 126 102 138 172 3 13 6 27 6
31 1 3 -2 29 -6 58 -18 121 -167 195 -248 124z"/>
<path d="M908 4591 c-21 -17 -23 -27 -23 -98 1 -87 26 -155 83 -226 46 -58 77
-77 132 -86 76 -12 75 9 -4 122 -80 115 -89 136 -91 214 0 33 -6 67 -12 75
-18 21 -58 20 -85 -1z"/>
<path d="M2015 3982 c-81 -38 -147 -131 -147 -207 0 -97 86 -180 182 -176 25
1 63 8 68 11 2 3 18 7 31 9 15 2 81 72 97 103 22 43 27 121 10 162 -16 39 -61
89 -89 99 -48 18 -113 17 -152 -1z"/>
<path d="M1370 3709 c-171 -94 -280 -303 -169 -324 19 -4 45 17 142 118 66 67
130 136 142 152 29 40 30 71 2 79 -40 10 -61 6 -117 -25z"/>
<path d="M5409 4420 c-77 -23 -149 -94 -174 -175 -18 -57 -15 -146 7 -172 6
-7 7 -13 3 -13 -4 0 8 -15 28 -34 102 -96 314 -39 371 99 20 46 25 120 13 168
-10 38 -56 96 -93 115 -27 14 -122 22 -155 12z"/>
<path d="M4510 3960 c-58 -58 17 -212 131 -271 44 -22 48 -23 124 -33 44 -6
55 -4 92 21 54 35 67 69 45 115 -22 42 -61 57 -105 39 -83 -33 -122 -15 -173
79 -36 66 -79 85 -114 50z"/>
<path d="M4461 2845 c-46 -24 -88 -48 -94 -54 -12 -12 -18 -89 -7 -96 23 -14
74 -14 102 1 42 22 115 24 190 7 63 -15 116 -5 120 21 4 34 3 43 -8 66 -7 14
-27 33 -46 42 -62 32 -130 58 -151 58 -12 0 -60 -20 -106 -45z"/>
<path d="M5461 2872 c-43 -7 -102 -52 -117 -88 -63 -152 111 -316 266 -250 75
31 114 103 106 193 -6 75 -30 113 -83 134 -30 12 -132 19 -172 11z"/>
<path d="M4962 2358 c-47 -51 -49 -117 -7 -204 41 -84 145 -164 233 -179 35
-6 87 17 97 43 10 26 -38 81 -100 117 -58 35 -101 84 -111 129 -3 11 -8 35
-10 51 -12 63 -62 84 -102 43z"/>
<path d="M2001 2788 c-74 -20 -111 -70 -111 -150 0 -91 60 -152 149 -150 25 0
58 5 72 10 37 15 89 61 101 91 16 38 11 98 -9 134 -31 54 -126 85 -202 65z"/>
<path d="M1139 2560 c-37 -22 -25 -104 23 -160 43 -51 134 -84 210 -77 53 6
138 44 138 64 0 20 -45 44 -82 45 -65 0 -198 52 -198 77 0 14 -49 61 -62 61
-7 0 -20 -5 -29 -10z"/>
<path d="M1365 1958 c-89 -29 -203 -142 -224 -222 -14 -57 11 -110 54 -113 42
-4 56 10 108 112 128 249 126 244 62 223z"/>
<path d="M2668 2141 c-142 -46 -199 -223 -105 -324 34 -37 94 -62 141 -60 69
4 153 72 182 149 18 49 15 136 -6 171 -34 54 -142 86 -212 64z"/>
<path d="M2146 1342 c-23 -5 -34 -14 -91 -71 -65 -65 -130 -198 -140 -286 -2
-14 13 -43 37 -70 20 -23 23 -23 49 -9 16 8 29 19 29 24 0 5 6 15 13 22 20 21
177 266 177 277 0 5 4 11 10 13 22 7 14 93 -9 100 -15 3 -58 4 -75 0z"/>
<path d="M2680 1153 c-162 -54 -232 -215 -141 -321 82 -97 238 -103 334 -13
40 37 59 87 59 152 0 75 -44 144 -109 171 -31 12 -119 19 -143 11z"/>
<path d="M3677 1979 c-99 -15 -151 -83 -150 -193 1 -74 6 -94 37 -133 45 -55
124 -73 206 -46 46 16 58 24 99 66 64 65 60 199 -6 260 -23 20 -93 50 -100 43
-3 -3 -13 -2 -22 3 -9 4 -38 4 -64 0z"/>
<path d="M4098 1775 c-19 -11 -32 -32 -48 -82 -27 -85 -41 -111 -105 -203 -47
-67 -85 -131 -85 -143 0 -3 12 -9 28 -15 96 -37 199 25 280 168 31 55 37 75
39 133 2 79 -16 129 -54 146 -28 13 -22 13 -55 -4z"/>
<path d="M4247 1315 c-21 -8 -45 -21 -53 -30 -8 -8 -19 -15 -24 -15 -5 0 -21
-25 -36 -57 -42 -85 -39 -215 6 -288 53 -86 172 -115 269 -66 38 20 110 96
115 123 2 7 8 31 14 53 18 63 3 161 -30 201 -52 62 -97 85 -173 90 -27 1 -67
-3 -88 -11z"/>
</g>
</svg>
